<?xml version="1.0" encoding="UTF-8"?><svg id="Capa_1" xmlns="http://www.w3.org/2000/svg" viewBox="0 0 500 500"><defs><style>.cls-1{fill:#1bcee1;}.cls-1,.cls-2{stroke-width:0px;}.cls-2{fill:#fff;}</style></defs><path class="cls-2" d="m250,70.08c99.37,0,179.92,80.55,179.92,179.92v179.92h-179.92c-99.37,0-179.92-80.55-179.92-179.92,0-99.37,80.55-179.92,179.92-179.92Z"/><path class="cls-1" d="m168.93,258.97c-.44-4.01-.82-8.03-1.34-12.04-.92-7.07-6.79-11.95-13.49-11.31-6.53.63-11.56,6.41-11.02,13.33.66,8.44,1.6,16.86,2.76,25.24.94,6.82,7.15,11.49,13.6,10.72,6.7-.8,11.41-6.8,10.79-13.91-.35-4.02-.86-8.03-1.3-12.04Z"/><path class="cls-1" d="m331.1,241.25c.44,4.01.8,8.04,1.34,12.04.95,7.03,6.95,11.89,13.62,11.16,6.51-.72,11.44-6.57,10.88-13.47-.68-8.3-1.61-16.6-2.71-24.85-.94-7.03-7.2-11.8-13.8-10.93-6.72.89-11.28,6.85-10.64,14.02.36,4.02.87,8.03,1.31,12.04Z"/><path class="cls-1" d="m284.46,246.38c1.32,12.05,2.38,24.13,4.14,36.12.49,3.31,2.46,6.89,4.8,9.34,3.48,3.65,9.07,3.78,13.41,1.21,4.87-2.89,6.82-7.34,6.21-12.91-2.63-24.1-5.27-48.19-7.93-72.28-.89-8.04-6.55-13.17-13.65-12.5-7.25.68-11.78,7.01-10.89,15.27,1.28,11.92,2.61,23.84,3.92,35.75Z"/><path class="cls-1" d="m262.29,248.79c-2.63-23.94-5.21-47.89-7.9-71.82-.97-8.68-6.92-14.59-13.77-13.98-6.99.62-11.72,7.79-10.75,16.7,5.2,47.74,10.42,95.47,15.79,143.19.34,3.02,1.54,6.27,3.13,8.74,3.35,5.22,9.11,6.72,14.16,4.41,5.07-2.31,7.97-8.31,7.2-15.41-2.58-23.95-5.24-47.89-7.87-71.83Z"/><path class="cls-1" d="m191.04,256.58c1.35,12.31,2.61,24.62,4.08,36.91.87,7.29,7.09,12.23,13.84,11.35,6.68-.87,11.41-6.9,10.64-14.03-2.63-24.62-5.26-49.24-8.22-73.82-.36-2.95-2.28-6.12-4.37-8.36-3.41-3.64-8.91-3.96-13.41-1.68-4.54,2.29-7.16,7.1-6.59,12.71,1.26,12.32,2.67,24.62,4.02,36.92Z"/></svg>