<?xml version="1.0" encoding="UTF-8"?><svg id="Capa_1" xmlns="http://www.w3.org/2000/svg" viewBox="0 0 1200 335.82"><defs><style>.cls-1{fill:#1bcee1;}.cls-1,.cls-2{stroke-width:0px;}.cls-2{fill:#fff;}</style></defs><path class="cls-2" d="m211.83,214.32v-94.87h69.96v23.27h-44.1v13.07h41.1v21.23h-41.1v14.43h45.19v22.87h-71.05Z"/><path class="cls-2" d="m286.89,214.32l25.72-35.93-23-32.67h27.36l10.07,14.29,10.07-14.29h27.36l-23,32.67,25.72,35.93h-27.49l-12.66-17.42-12.66,17.42h-27.49Z"/><path class="cls-2" d="m376.67,214.32v-46.68h-9.39v-21.91h9.39v-26.27h25.18v26.27h14.16v21.91h-14.16v46.68h-25.18Z"/><path class="cls-2" d="m422.85,214.32v-68.6h25.18v8.44c3.95-6.67,10.48-10.07,19.33-10.07,1.5,0,5.17.41,5.85.41v22.87c-2.31-.41-4.49-.68-6.81-.68-11.98,0-18.37,6.26-18.37,17.15v30.49h-25.18Z"/><path class="cls-2" d="m476.5,179.62c0-10.75,3.68-19.33,10.89-25.72,7.21-6.53,16.47-9.8,27.77-9.8s19.74,3.4,26.68,10.21c6.94,6.67,10.34,14.97,10.34,24.91,0,2.59-.14,5.17-.41,7.62h-50.09c.41,4.9,6.4,8.03,15.24,8.03,5.85,0,10.75-1.77,14.7-5.31l14.29,13.61c-8.44,8.44-18.51,12.66-30.35,12.66s-21.1-3.27-28.31-9.66c-7.21-6.53-10.75-15.11-10.75-25.86v-.68Zm50.63-8.03c0-4.36-5.44-8.17-11.98-8.17-7.08,0-12.93,3.67-13.34,8.17h25.32Z"/><path class="cls-2" d="m560.06,214.32v-68.6h25.18v8.44c3.68-6.67,9.39-10.07,17.15-10.07,9.26,0,15.52,3.54,18.78,10.62,4.76-7.08,12.52-10.62,23-10.62,15.92,0,24.5,10.75,24.5,29.67v40.56h-25.18v-37.56c0-6.53-2.86-10.62-7.76-10.62s-8.71,4.49-8.71,11.02v37.16h-25.18v-37.56c0-6.53-2.99-10.62-7.89-10.62s-8.71,4.49-8.71,11.02v37.16h-25.18Z"/><path class="cls-2" d="m676.69,179.62c0-10.75,3.67-19.33,10.89-25.72,7.21-6.53,16.47-9.8,27.77-9.8s19.74,3.4,26.68,10.21c6.94,6.67,10.34,14.97,10.34,24.91,0,2.59-.14,5.17-.41,7.62h-50.09c.41,4.9,6.4,8.03,15.24,8.03,5.85,0,10.75-1.77,14.7-5.31l14.29,13.61c-8.44,8.44-18.51,12.66-30.35,12.66s-21.1-3.27-28.31-9.66c-7.21-6.53-10.75-15.11-10.75-25.86v-.68Zm50.63-8.03c0-4.36-5.44-8.17-11.98-8.17-7.08,0-12.93,3.67-13.34,8.17h25.32Z"/><path class="cls-1" d="m752.91,214.32l40.15-94.87h8.17l40.15,94.87h-11.43l-9.8-23.41h-46l-9.8,23.41h-11.43Zm25.32-33.21h37.84l-18.92-45.19-18.92,45.19Z"/><path class="cls-1" d="m847.48,145.73h10.07v41.1c0,12.93,7.08,19.74,18.65,19.74s18.78-6.94,18.78-19.87v-40.97h10.07v41.1c0,18.51-11.84,29.13-29.26,29.13s-28.31-10.21-28.31-28.17v-42.06Z"/><path class="cls-1" d="m973.9,155.94v-36.48h10.07v94.87h-10.07v-10.21c-3.95,6.94-11.98,12.25-24.36,12.25-9.66,0-17.97-3.4-24.63-10.34-6.67-6.94-10.07-15.65-10.07-26s3.4-18.92,10.07-25.86c6.67-6.94,14.97-10.48,24.63-10.48,12.39,0,20.42,5.31,24.36,12.25Zm-6.13,43.42c4.9-5.17,7.35-11.57,7.35-19.33s-2.45-14.15-7.35-19.19c-4.76-5.17-10.89-7.76-18.24-7.76s-12.93,2.59-17.69,7.76c-4.63,5.04-6.94,11.43-6.94,19.19s2.31,14.16,6.94,19.33c4.76,5.04,10.62,7.62,17.69,7.62s13.47-2.59,18.24-7.62Z"/><path class="cls-1" d="m998.6,132.39c-2.72-2.72-2.72-7.08,0-9.66,2.72-2.72,6.81-2.72,9.53,0,2.72,2.59,2.72,6.94,0,9.66-2.72,2.59-6.8,2.59-9.53,0Zm-.27,81.94v-68.6h10.07v68.6h-10.07Z"/><path class="cls-1" d="m1018.56,180.03c0-10.34,3.54-18.92,10.62-25.86,7.08-6.94,15.65-10.48,25.86-10.48s18.78,3.54,25.86,10.48c7.08,6.94,10.62,15.52,10.62,25.86s-3.54,19.06-10.62,26c-7.08,6.94-15.65,10.34-25.86,10.34s-18.78-3.4-25.86-10.34c-7.08-6.94-10.62-15.65-10.62-26Zm10.07,0c0,7.76,2.45,14.16,7.48,19.33,5.04,5.04,11.3,7.62,18.92,7.62s13.88-2.59,18.92-7.62c5.04-5.17,7.48-11.57,7.48-19.33s-2.45-14.15-7.48-19.19c-5.04-5.17-11.3-7.76-18.92-7.76s-13.88,2.59-18.92,7.76c-5.04,5.04-7.48,11.43-7.48,19.19Z"/><path class="cls-2" d="m155.92,119.46c26.2,0,47.43,21.24,47.43,47.43v47.43h-47.43c-26.2,0-47.43-21.24-47.43-47.43,0-26.2,21.24-47.43,47.43-47.43Z"/><path class="cls-1" d="m134.54,169.26c-.12-1.06-.22-2.12-.35-3.17-.24-1.86-1.79-3.15-3.56-2.98-1.72.17-3.05,1.69-2.9,3.51.17,2.22.42,4.44.73,6.65.25,1.8,1.89,3.03,3.59,2.83,1.77-.21,3.01-1.79,2.84-3.67-.09-1.06-.23-2.12-.34-3.17Z"/><path class="cls-1" d="m177.3,164.58c.12,1.06.21,2.12.35,3.17.25,1.85,1.83,3.14,3.59,2.94,1.72-.19,3.02-1.73,2.87-3.55-.18-2.19-.42-4.38-.72-6.55-.25-1.85-1.9-3.11-3.64-2.88-1.77.23-2.97,1.81-2.8,3.7.09,1.06.23,2.12.34,3.17Z"/><path class="cls-1" d="m165,165.94c.35,3.18.63,6.36,1.09,9.52.13.87.65,1.82,1.27,2.46.92.96,2.39,1,3.54.32,1.28-.76,1.8-1.94,1.64-3.4-.69-6.35-1.39-12.7-2.09-19.06-.23-2.12-1.73-3.47-3.6-3.3-1.91.18-3.11,1.85-2.87,4.03.34,3.14.69,6.28,1.03,9.43Z"/><path class="cls-1" d="m159.16,166.57c-.69-6.31-1.37-12.63-2.08-18.94-.26-2.29-1.83-3.85-3.63-3.69-1.84.16-3.09,2.05-2.83,4.4,1.37,12.59,2.75,25.17,4.16,37.75.09.79.41,1.65.82,2.3.88,1.38,2.4,1.77,3.73,1.16,1.34-.61,2.1-2.19,1.9-4.06-.68-6.31-1.38-12.62-2.07-18.94Z"/><path class="cls-1" d="m140.37,168.63c.36,3.24.69,6.49,1.08,9.73.23,1.92,1.87,3.23,3.65,2.99,1.76-.23,3.01-1.82,2.81-3.7-.69-6.49-1.39-12.98-2.17-19.46-.09-.78-.6-1.61-1.15-2.2-.9-.96-2.35-1.04-3.53-.44-1.2.6-1.89,1.87-1.74,3.35.33,3.25.7,6.49,1.06,9.73Z"/></svg>